<?xml version="1.0" standalone="no"?><!DOCTYPE svg PUBLIC "-//W3C//DTD SVG 1.1//EN" "http://www.w3.org/Graphics/SVG/1.1/DTD/svg11.dtd"><svg t="1498912516134" class="icon" style="" viewBox="0 0 1024 1024" version="1.1" xmlns="http://www.w3.org/2000/svg" p-id="2818" xmlns:xlink="http://www.w3.org/1999/xlink" width="200" height="200"><defs><style type="text/css"></style></defs><path d="M686.285714 573.714286l174.857143-169.714286-241.142857-35.428571-108-218.285714-108 218.285714-241.142857 35.428571 174.857143 169.714286-41.714286 240.571429 216-113.714286 215.428571 113.714286zM987.428571 369.714286q0 12.571429-14.857143 27.428571l-207.428571 202.285714 49.142857 285.714286q0.571429 4 0.571429 11.428571 0 28.571429-23.428571 28.571429-10.857143 0-22.857143-6.857143l-256.571429-134.857143-256.571429 134.857143q-12.571429 6.857143-22.857143 6.857143-12 0-18-8.285714t-6-20.285714q0-3.428571 1.142857-11.428571l49.142857-285.714286-208-202.285714q-14.285714-15.428571-14.285714-27.428571 0-21.142857 32-26.285714l286.857143-41.714286 128.571429-260q10.857143-23.428571 28-23.428571t28 23.428571l128.571429 260 286.857143 41.714286q32 5.142857 32 26.285714z" p-id="2819" fill="#8a8a8a"></path></svg>