<?xml version="1.0" standalone="no"?><!DOCTYPE svg PUBLIC "-//W3C//DTD SVG 1.1//EN" "http://www.w3.org/Graphics/SVG/1.1/DTD/svg11.dtd"><svg t="1498912558867" class="icon" style="" viewBox="0 0 1024 1024" version="1.1" xmlns="http://www.w3.org/2000/svg" p-id="2990" xmlns:xlink="http://www.w3.org/1999/xlink" width="200" height="200"><defs><style type="text/css"></style></defs><path d="M506.304 66.944c3.136-6.336 8.192-6.336 11.328 0l137.024 277.568c3.136 6.336 11.392 12.288 18.304 13.312l306.368 44.544c6.976 1.024 8.512 5.888 3.52 10.752l-221.696 216.064c-5.056 4.928-8.192 14.592-6.976 21.568l52.352 305.088c1.216 6.912-2.944 9.92-9.152 6.656l-273.984-144.064c-6.208-3.264-16.448-3.264-22.656 0L226.688 962.56c-6.208 3.264-10.368 0.256-9.152-6.656l52.352-305.088c1.216-6.912-1.984-16.64-6.976-21.568L41.152 413.184C36.096 408.256 37.696 403.392 44.672 402.368l306.368-44.544c6.976-1.024 15.232-6.976 18.304-13.312L506.304 66.944z" p-id="2991" fill="#707070"></path></svg>