<?xml version="1.0" standalone="no"?><!DOCTYPE svg PUBLIC "-//W3C//DTD SVG 1.1//EN" "http://www.w3.org/Graphics/SVG/1.1/DTD/svg11.dtd"><svg t="1498036368734" class="icon" style="" viewBox="0 0 1024 1024" version="1.1" xmlns="http://www.w3.org/2000/svg" p-id="5482" xmlns:xlink="http://www.w3.org/1999/xlink" width="200" height="200"><defs><style type="text/css"></style></defs><path d="M512.884648 28.325116C258.422166 28.325116 52.141032 234.606249 52.141032 489.067708s206.281133 460.743616 460.743616 460.743616c254.461459 0 460.742593-206.282157 460.742593-460.743616S767.346107 28.325116 512.884648 28.325116zM512.884648 859.736842c-204.715475 0-370.670158-165.953659-370.670158-370.669134 0-204.714452 165.954683-370.669134 370.670158-370.669134 204.714452 0 370.669134 165.954683 370.669134 370.669134C883.553783 693.783183 717.5991 859.736842 512.884648 859.736842z" p-id="5483" fill="#bfbfbf"></path><path d="M512.884648 28.325116C258.422166 28.325116 52.141032 234.606249 52.141032 489.067708s206.281133 460.743616 460.743616 460.743616c254.461459 0 460.742593-206.282157 460.742593-460.743616S767.346107 28.325116 512.884648 28.325116zM512.884648 859.736842c-204.715475 0-370.670158-165.953659-370.670158-370.669134 0-204.714452 165.954683-370.669134 370.670158-370.669134 204.714452 0 370.669134 165.954683 370.669134 370.669134C883.553783 693.783183 717.5991 859.736842 512.884648 859.736842z" p-id="5484" fill="#bfbfbf"></path><path d="M355.761098 715.783243c-15.985066 15.987113-41.901319 15.987113-57.886385 0l-11.704576-11.704576c-15.986089-15.985066-15.986089-41.901319 0-57.886385l383.841132-383.840108c15.985066-15.985066 41.901319-15.985066 57.886385 0l11.704576 11.704576c15.985066 15.985066 15.985066 41.901319 0 57.886385L355.761098 715.783243z" p-id="5485" fill="#bfbfbf"></path><path d="M739.601206 646.193305c15.985066 15.985066 15.985066 41.901319 0 57.886385l-11.704576 11.704576c-15.985066 15.986089-41.901319 15.986089-57.886385 0l-383.842155-383.841132c-15.985066-15.985066-15.985066-41.901319 0-57.886385l11.704576-11.704576c15.985066-15.985066 41.901319-15.985066 57.886385 0L739.601206 646.193305z" p-id="5486" fill="#bfbfbf"></path></svg>