<?xml version="1.0" standalone="no"?><!DOCTYPE svg PUBLIC "-//W3C//DTD SVG 1.1//EN" "http://www.w3.org/Graphics/SVG/1.1/DTD/svg11.dtd"><svg t="1497968470343" class="icon" style="" viewBox="0 0 1024 1024" version="1.1" xmlns="http://www.w3.org/2000/svg" p-id="4202" xmlns:xlink="http://www.w3.org/1999/xlink" width="200" height="200"><defs><style type="text/css"></style></defs><path d="M100.366222 38.997333l0 127.971556-71.111111 0 0 170.794667 71.111111 0 0 99.242667-71.111111 0 0 170.794667 71.111111 0 0 99.527111-71.111111 0 0 170.794667 71.111111 0 0 127.985778 896 0 0-967.111111L100.366222 38.997333zM57.699556 309.219556l0-113.777778 85.333333 0 0 113.777778L57.699556 309.219556zM57.699556 579.726222l0-114.147556 85.333333 0 0 114.147556L57.699556 579.726222zM57.699556 849.479111l0-113.550222 85.333333 0 0 113.550222L57.699556 849.479111zM953.699556 963.427556l-810.666667 0 0-85.319111 28.444444 0L171.477333 707.313778l-28.444444 0 0-99.527111 28.444444 0L171.477333 437.006222l-28.444444 0 0-99.242667 28.444444 0L171.477333 166.968889l-28.444444 0L143.032889 81.664l810.666667-1.507556L953.699556 963.427556zM797.255111 280.732444l-497.777778 0 0 42.808889 497.777778 0L797.255111 280.732444z" p-id="4203"></path></svg>