<?xml version="1.0" standalone="no"?><!DOCTYPE svg PUBLIC "-//W3C//DTD SVG 1.1//EN" "http://www.w3.org/Graphics/SVG/1.1/DTD/svg11.dtd"><svg t="1497967570586" class="icon" style="" viewBox="0 0 1024 1024" version="1.1" xmlns="http://www.w3.org/2000/svg" p-id="3904" xmlns:xlink="http://www.w3.org/1999/xlink" width="200" height="200"><defs><style type="text/css"></style></defs><path d="M921.561421 286.745746 102.436532 286.745746c-22.61916 0-40.956807-18.33867-40.956807-40.956807 0-22.638603 18.33867-40.977273 40.956807-40.977273l819.124889 0c22.638603 0 40.956807 18.33867 40.956807 40.977273C962.519252 268.407076 944.200024 286.745746 921.561421 286.745746L921.561421 286.745746zM921.561421 552.96704 102.436532 552.96704c-22.61916 0-40.956807-18.339694-40.956807-40.957831 0-22.61916 18.33867-40.956807 40.956807-40.956807l819.124889 0c22.638603 0 40.956807 18.33867 40.956807 40.956807C962.519252 534.627347 944.200024 552.96704 921.561421 552.96704L921.561421 552.96704zM921.561421 819.188334 102.436532 819.188334c-22.61916 0-40.956807-18.337647-40.956807-40.955784s18.33867-40.957831 40.956807-40.957831l819.124889 0c22.638603 0 40.956807 18.339694 40.956807 40.957831S944.200024 819.188334 921.561421 819.188334L921.561421 819.188334z" p-id="3905" fill="#e6e6e6"></path></svg>