<?xml version="1.0" standalone="no"?><!DOCTYPE svg PUBLIC "-//W3C//DTD SVG 1.1//EN" "http://www.w3.org/Graphics/SVG/1.1/DTD/svg11.dtd"><svg t="1497968496171" class="icon" style="" viewBox="0 0 1024 1024" version="1.1" xmlns="http://www.w3.org/2000/svg" p-id="4866" xmlns:xlink="http://www.w3.org/1999/xlink" width="200" height="200"><defs><style type="text/css"></style></defs><path d="M526.365172 241.327324c-7.629771-7.629771-21.140483-7.629771-28.770254 0L110.829178 628.132974c-7.946996 7.946996-7.946996 20.822235 0 28.770254 7.946996 7.948019 20.822235 7.948019 28.770254 0l352.034728-352.072591 0 633.532961c0 11.246135 9.100262 20.345374 20.345374 20.345374 11.246135 0 20.345374-9.100262 20.345374-20.345374L532.324908 304.82859l352.074637 352.074637c3.973498 3.973498 9.179057 5.960759 14.384615 5.960759 5.205559 0 10.411117-1.987261 14.384615-5.960759 7.946996-7.946996 7.946996-20.822235 0-28.770254L526.365172 241.327324z" p-id="4867"></path><path d="M125.214816 105.981776l773.570367 0c11.246135 0 20.345374-9.100262 20.345374-20.345374 0-11.246135-9.100262-20.345374-20.345374-20.345374L125.214816 65.291029c-11.246135 0-20.345374 9.100262-20.345374 20.345374C104.869443 96.881514 113.968681 105.981776 125.214816 105.981776z" p-id="4868"></path></svg>